<svg width="192" height="192" viewBox="0 0 192 192" fill="none" xmlns="http://www.w3.org/2000/svg">
<rect width="192" height="192" fill="#EDEDED"/>
<g clip-path="url(#clip0_1_36)">
<g clip-path="url(#clip1_1_36)">
<path d="M192 96C192 99.69 191.79 103.35 191.37 106.95C188.43 132.9 175.14 155.7 155.73 171.18C139.32 184.2 118.56 192 96 192C42.99 192 0 149.01 0 96C0 88.68 0.81 81.54 2.37 74.7C12.06 31.92 50.31 0 96 0C117.81 0 137.91 7.29 154.05 19.53C175.05 35.49 189.27 59.94 191.64 87.75C191.88 90.45 192 93.21 192 96Z" fill="#7CA2C1"/>
<path d="M131.34 41.34L128.64 46.29C126.21 50.76 120.6 52.38 116.19 49.89L97.08 39.24C92.13 36.69 86.19 37.35 81.9 40.89C74.01 47.4 62.1 58.29 59.31 66.69C54.99 79.53 48.87 78 43.08 76.2C37.26 74.34 35.1 72.21 34.5 68.22C33.9 64.23 26.25 60.87 22.86 66.39C21.84 68.07 21 69.72 20.25 71.22C18.87 74.04 18.12 77.04 17.55 80.1C17.28 81.51 16.62 83.07 14.91 83.52C12.72 84.12 6.39 80.85 2.37 74.7C12.06 31.92 50.31 0 96 0L100.83 10.56C101.58 12.24 102.96 13.53 104.64 14.19L125.04 22.32C126.99 23.1 128.46 24.72 129.09 26.73L131.91 36.09C132.42 37.86 132.21 39.75 131.34 41.34ZM191.64 87.75L181.29 89.16C177.12 89.73 173.46 86.34 173.7 82.17L173.85 79.38C173.94 77.37 173.25 75.42 171.9 73.95C166.77 68.34 159.78 58.74 154.14 50.67C148.26 42.24 147.66 31.2 152.61 22.14L154.05 19.53C175.05 35.49 189.27 59.94 191.64 87.75ZM191.37 106.95C188.43 132.9 175.14 155.7 155.73 171.18H155.64L152.64 155.07C152.13 152.37 150.57 149.97 148.29 148.41L145.08 146.16C142.8 144.57 141.75 141.66 142.59 138.96L144.66 132.24L143.61 126.39C143.04 123 144.96 119.73 148.2 118.65L157.86 115.38C159.45 114.87 160.86 113.97 162 112.77L169.14 105.36C172.11 102.33 176.58 101.34 180.57 102.81L191.34 106.92C191.34 106.92 191.34 106.95 191.37 106.95ZM120.9 81.24L124.74 90.18C128.28 98.43 125.34 108 117.75 112.83L107.46 119.4L97.35 136.38V149.46L91.62 168.27C91.62 168.27 78.99 176.76 71.43 163.44V158.55C71.43 156.3 70.32 154.17 68.49 152.88L66.75 151.65C64.32 149.94 62.79 147.27 62.49 144.33L61.2 130.56C60.99 128.22 60.06 125.97 58.53 124.17L53.55 118.17C51.3 115.47 51.78 111.42 54.63 109.32L56.85 107.7C58.29 106.62 59.52 105.27 60.42 103.71L72.12 83.58L81.78 79.2C83.4 78.48 85.2 78.36 86.88 78.93L90.96 80.25C93.36 81.03 96 80.49 97.86 78.78L99.99 76.89C101.28 75.72 102.96 75.09 104.7 75.09H111.54C115.62 75.09 119.31 77.52 120.9 81.24Z" fill="#BDD64D"/>
</g>
</g>
<defs>
<clipPath id="clip0_1_36">
<rect width="192" height="192" fill="white"/>
</clipPath>
<clipPath id="clip1_1_36">
<rect width="192" height="192" fill="white"/>
</clipPath>
</defs>
</svg>
